# xmcd
# 
# Track frame offsets:
#     150
#     27802
#     63065
#     107316
#     133386
#     160889
#     174752
#     211196
#     239898
#     283453
#     306559
# 
# Disc length: 4428
# 
# Revision: 4
# Processed by: cddbd v1.5.2PL0 Copyright (c) Steve Scherf et al.
# Submitted via: fre:ac v1.0.31
# 
DISCID=9d114a0b
DTITLE=Alice Coltrane - Translinear Llight
DYEAR=2004
DGENRE=Jazz
TTITLE0=Sita Ram
TTITLE1=Walk With Me
TTITLE2=Tanslinear Light
TTITLE3=Jagadishwar
TTITLE4=This Train
TTITLE5=The Hymn
TTITLE6=Blue Nile
TTITLE7=Crescent
TTITLE8=Leo
TTITLE9=Triloka
TTITLE10=Satya Sai Isha
EXTD=
EXTT0=
EXTT1=
EXTT2=
EXTT3=
EXTT4=
EXTT5=
EXTT6=
EXTT7=
EXTT8=
EXTT9=
EXTT10=
PLAYORDER=
